# xmcd CD database file
#
# Track frame offsets:
#	150
#	29913
#	43593
#	75163
#	100838
#	112363
#	131988
#	159888
#	184150
#	240675
#	258513
#	292638
#
# Disc length: 4509 seconds
#
# Revision: 1
# Processed by: cddbd v1.5.2PL0 Copyright (c) Steve Scherf et al.
# Submitted via: CDex 1.51
#
DISCID=a2119b0c
DTITLE=Tom Waits - Cold Beer On A Hot Night - Live In Sydney - 1979
DYEAR=1900
DGENRE=Blues
TTITLE0=Romeo Is Bleeding
TTITLE1=Annies Back In Town
TTITLE2=Jitterbug Boy/Better Off Without A Wife
TTITLE3=I Wish I Was In New Orleans
TTITLE4=Since I Fell For You
TTITLE5=Red Shoes
TTITLE6=Silent Night/Christmas Card From A Hooker In Minneapolis
TTITLE7=Do The Hokey Cokey
TTITLE8=Pasties and A G-String
TTITLE9=Summertime/Burma Shave
TTITLE10=Tom Traubert's Blues
TTITLE11=Small Change/Big Spender
EXTD=
EXTT0=
EXTT1=
EXTT2=
EXTT3=
EXTT4=
EXTT5=
EXTT6=
EXTT7=
EXTT8=
EXTT9=
EXTT10=
EXTT11=
PLAYORDER=
